HIERARCHY
ROOT Hips
{
	OFFSET 0.00 0.00 0.00
	CHANNELS 6 Xposition Yposition Zposition Xrotation Yrotation Zrotation
	JOINT LeftUpLeg
	{
		OFFSET 3.25772 0.00000 0.00000
		CHANNELS 3 Xrotation Yrotation Zrotation
		JOINT LeftLeg
		{
			OFFSET 0.00000 -15.35355 0.00000
			CHANNELS 3 Xrotation Yrotation Zrotation
			JOINT LeftFoot
			{
				OFFSET 0.00000 -16.48949 0.00000
				CHANNELS 3 Xrotation Yrotation Zrotation
				JOINT LeftToeBase
				{
					OFFSET 0.00000 -1.72224 6.42750
					CHANNELS 3 Xrotation Yrotation Zrotation
					End Site
					{
						OFFSET 0.00000 0.00000 2.95275
					}
				}
			}
		}
	}
	JOINT RightUpLeg
	{
		OFFSET -3.25772 0.00000 0.00000
		CHANNELS 3 Xrotation Yrotation Zrotation
		JOINT RightLeg
		{
			OFFSET 0.00000 -15.35355 0.00000
			CHANNELS 3 Xrotation Yrotation Zrotation
			JOINT RightFoot
			{
				OFFSET 0.00000 -16.48949 0.00000
				CHANNELS 3 Xrotation Yrotation Zrotation
				JOINT RightToeBase
				{
					OFFSET 0.00000 -1.72224 6.42750
					CHANNELS 3 Xrotation Yrotation Zrotation
					End Site
					{
						OFFSET 0.00000 0.00000 2.95275
					}
				}
			}
		}
	}
	JOINT Spine
	{
		OFFSET 0.00000 0.03937 0.00000
		CHANNELS 3 Xrotation Yrotation Zrotation
		JOINT Spine1
		{
			OFFSET 0.00000 10.14986 0.00000
			CHANNELS 3 Xrotation Yrotation Zrotation
			JOINT Neck
			{
				OFFSET 0.00000 9.84250 0.00000
				CHANNELS 3 Xrotation Yrotation Zrotation
				JOINT Head
				{
					OFFSET 0.00000 4.54023 0.00000
					CHANNELS 3 Xrotation Yrotation Zrotation
					End Site
					{
						OFFSET 0.00000 4.52755 0.00000
					}
				}
			}
			JOINT LeftShoulder
			{
				OFFSET 0.00000 9.84250 0.00000
				CHANNELS 3 Xrotation Yrotation Zrotation
				JOINT LeftArm
				{
					OFFSET 7.21510 -0.00003 0.00000
					CHANNELS 3 Xrotation Yrotation Zrotation
					JOINT LeftForeArm
					{
						OFFSET 10.66411 -0.00004 0.00000
						CHANNELS 3 Xrotation Yrotation Zrotation
						JOINT LeftHand
						{
							OFFSET 8.93656 -0.00003 0.00000
							CHANNELS 3 Xrotation Yrotation Zrotation
							JOINT L_Wrist_End
							{
								OFFSET 3.93700 -0.00001 0.00000
								CHANNELS 3 Xrotation Yrotation Zrotation
							}
						}
					}
				}
			}
			JOINT RightShoulder
			{
				OFFSET 0.00000 9.84250 0.00000
				CHANNELS 3 Xrotation Yrotation Zrotation
				JOINT RightArm
				{
					OFFSET -7.21510 -0.00003 0.00000
					CHANNELS 3 Xrotation Yrotation Zrotation
					JOINT RightForeArm
					{
						OFFSET -10.66411 -0.00004 0.00000
						CHANNELS 3 Xrotation Yrotation Zrotation
						JOINT RightHand
						{
							OFFSET -8.93656 -0.00003 0.00000
							CHANNELS 3 Xrotation Yrotation Zrotation
							JOINT R_Wrist_End
							{
								OFFSET -5.41338 -0.00002 0.00000
								CHANNELS 3 Xrotation Yrotation Zrotation
							}
						}
					}
				}
			}
		}
	}
}
MOTION
Frames: 7
Frame Time: 0.008333
 2.7768 32.9788 55.2495 3.7886 1.4843 -4.6974 10.4161 16.0436 10.2579 20.7175 -0.0000 0.0000 -2.7819 -12.2652 0.9935 -51.1704 0.0000 0.0000 -14.5919 2.2045 4.0867 6.1246 -0.0000 0.0000 5.1350 -11.4398 4.2404 -30.7315 0.0000 -0.0000 -21.1246 -6.8433 -3.6719 33.3551 2.5496 7.8574 -4.2023 -1.5451 7.6628 9.7833 -21.5778 -13.4730 17.6179 5.3580 7.3713 -20.6132 -54.3937 -76.7710 -0.0001 -19.7060 -0.0000 -0.6712 4.1818 17.3402 -0.0000 -0.0000 0.0000 18.7647 -2.6213 -0.4444 -3.0882 34.4619 65.2025 -0.0001 30.4656 0.0000 -18.4279 -13.1328 -16.3076 -0.0000 0.0000 -0.0000
 2.7219 33.0077 55.4995 3.7870 1.6347 -4.7856 9.6213 15.9727 10.8791 22.4930 -0.0000 0.0000 -2.1979 -12.6709 1.2012 -51.8982 0.0000 0.0000 -14.0943 1.9131 4.2623 6.0401 -0.0000 0.0000 4.9295 -11.2456 3.7672 -30.3583 0.0000 0.0000 -21.0634 -6.8457 -3.6094 33.2131 2.6815 8.0460 -4.3756 -1.5813 8.0507 9.9036 -21.7705 -14.0405 17.8021 5.4020 7.3268 -19.9720 -54.0867 -76.4429 -0.0001 -19.9954 -0.0000 -0.5985 3.7284 16.7114 -0.0000 0.0000 -0.0000 18.7070 -2.5326 -0.2664 -3.0250 34.3796 64.7764 -0.0001 30.7568 0.0000 -18.5588 -12.9145 -16.6523 -0.0000 0.0000 -0.0000
 2.6555 33.0323 55.7463 3.8507 1.8774 -5.0187 8.8429 15.6978 11.5750 24.0547 -0.0000 0.0000 -1.5061 -12.8518 1.2499 -52.7148 0.0000 0.0000 -13.7636 1.4351 4.5892 6.1509 -0.0000 0.0000 4.8870 -10.8560 3.6498 -30.2461 0.0000 0.0000 -21.0950 -6.9952 -3.6385 33.1392 2.8742 8.5178 -4.5850 -1.6848 8.0673 10.0413 -21.8917 -14.4121 17.5032 5.3475 7.4048 -19.0173 -53.9432 -76.3957 -0.0001 -20.1824 -0.0000 -0.5552 3.2909 16.5632 -0.0000 -0.0000 0.0000 19.0013 -2.4279 -0.3108 -3.4662 34.3112 64.4636 -0.0001 30.9696 0.0000 -18.3441 -12.8471 -16.3624 -0.0000 -0.0000 0.0000
 2.5953 33.0541 55.9905 3.8372 1.9967 -4.9864 8.0695 15.4471 12.0383 25.8779 -0.0000 0.0000 -0.6326 -13.1499 1.5171 -53.4387 0.0000 0.0000 -13.3712 1.3309 4.6915 6.2348 -0.0000 0.0000 4.3900 -11.0263 2.9084 -30.0673 0.0000 -0.0000 -21.1151 -6.9178 -3.6686 33.1197 3.0647 8.6241 -4.6963 -1.8872 8.0074 10.2565 -21.8931 -14.2647 17.7834 5.4289 7.5067 -18.5042 -54.0347 -76.0180 -0.0001 -20.5157 -0.0000 -1.1099 3.1542 16.3451 -0.0000 0.0000 -0.0000 18.8128 -2.2748 -0.2656 -3.3097 34.4137 64.1413 -0.0001 31.3295 0.0000 -18.6991 -12.8445 -16.6501 -0.0000 0.0000 -0.0000
 2.5367 33.0710 56.2263 3.8148 2.2257 -5.0134 6.9953 15.1612 12.6235 28.1748 -0.0000 0.0000 0.2151 -13.3751 1.2519 -54.2623 0.0000 0.0000 -12.8995 1.3547 4.8435 6.1401 -0.0000 0.0000 4.1801 -11.3321 2.3754 -30.0915 0.0000 0.0000 -21.0011 -6.9438 -3.6834 32.9592 3.1689 8.7886 -4.7228 -1.9544 8.1236 10.2688 -22.0077 -14.3747 17.9856 5.6761 7.4600 -17.8868 -53.9360 -75.5990 -0.0001 -21.0775 -0.0000 -1.1201 3.4753 16.0526 -0.0000 0.0000 -0.0000 18.5592 -2.2582 -0.1870 -3.1644 34.8583 63.7665 -0.0001 31.2745 0.0000 -18.9702 -12.5787 -16.7750 -0.0000 -0.0000 0.0000
 2.4836 33.0866 56.4696 3.7894 2.4958 -5.0458 5.9776 15.0156 13.2369 30.3510 -0.0000 0.0000 0.9351 -13.7232 1.3543 -54.4488 0.0000 0.0000 -12.4965 1.1907 4.9714 6.2468 -0.0000 0.0000 3.9010 -11.4070 2.0055 -30.0047 0.0000 -0.0000 -20.9701 -6.9988 -3.7402 32.9059 3.2796 8.9962 -4.8479 -2.2018 7.9898 10.4893 -21.9970 -14.1643 17.9998 5.7369 7.5612 -17.1547 -54.0220 -75.3312 -0.0001 -21.3871 -0.0000 -1.1361 3.2898 16.0496 -0.0000 0.0000 -0.0000 18.4469 -2.0643 -0.1538 -3.1907 34.5968 63.4853 -0.0001 31.7260 0.0000 -18.6778 -12.9018 -16.4757 -0.0000 -0.0000 0.0000
 2.4392 33.0992 56.7179 3.7550 2.6675 -5.0590 4.8131 14.9296 13.8169 32.8759 -0.0000 0.0000 1.6058 -13.9267 1.5466 -54.4754 0.0000 0.0000 -12.0318 1.2434 5.0935 6.2432 -0.0000 0.0000 3.5797 -11.6095 1.7813 -29.5920 0.0000 0.0000 -20.9610 -6.9985 -3.7304 32.8162 3.4157 9.1815 -4.8611 -2.4677 7.8410 10.5706 -22.1025 -14.1021 18.2470 5.7542 7.5828 -16.6231 -53.8998 -75.0339 -0.0001 -21.6454 -0.0000 -0.8844 2.9090 16.0739 -0.0000 0.0000 -0.0000 18.5783 -1.8983 -0.1714 -3.4337 34.5196 63.2381 -0.0001 32.0011 0.0000 -17.8083 -13.0825 -16.2643 -0.0000 -0.0000 0.0000
